<svg xmlns="http://www.w3.org/2000/svg" width="59" height="33" viewBox="0 0 59 33">
  <g id="marker" transform="translate(-169 -346)">
    <rect id="Rectangle_1" data-name="Rectangle 1" width="59" height="23" rx="11.5" transform="translate(169 346)" fill="#fff"/>
    <path id="Rectangle_2" data-name="Rectangle 2" d="M0,0H4A0,0,0,0,1,4,0V8a2,2,0,0,1-2,2H2A2,2,0,0,1,0,8V0A0,0,0,0,1,0,0Z" transform="translate(197 369)" fill="#fff"/>
    <path id="Path_3" data-name="Path 3" d="M8.623,7.623,6.294,9.952,3.965,7.623a3.294,3.294,0,1,1,4.658,0Zm-2.329-1.6a.732.732,0,1,0-.732-.732A.732.732,0,0,0,6.294,6.026Z" transform="translate(173.98 351.642)"/>
    <text id="Dropoff" transform="translate(189 360)" font-size="6" font-family="Gordita-Bold, Gordita" font-weight="700"><tspan x="0" y="0">Dropoff</tspan></text>
  </g>
</svg>
