<svg xmlns="http://www.w3.org/2000/svg" width="70" height="44" viewBox="0 0 70 44">
  <g id="marker" transform="translate(-169 -342)">
    <rect id="Rectangle_1" data-name="Rectangle 1" width="70" height="30" rx="15" transform="translate(169 342)" fill="#fff"/>
    <path id="Rectangle_2" data-name="Rectangle 2" d="M0,0H5A0,0,0,0,1,5,0V11.5A2.5,2.5,0,0,1,2.5,14h0A2.5,2.5,0,0,1,0,11.5V0A0,0,0,0,1,0,0Z" transform="translate(202 372)" fill="#fff"/>
    <path id="Path_3" data-name="Path 3" d="M9.7,8.7,6.925,11.476,4.15,8.7A3.925,3.925,0,1,1,9.7,8.7ZM6.925,6.8a.872.872,0,1,0-.872-.872A.872.872,0,0,0,6.925,6.8Z" transform="translate(177.98 350.524)"/>
    <text id="Dropoff" transform="translate(199 361)" font-size="8" font-family="Gordita-Bold, Gordita" font-weight="700"><tspan x="0" y="0">Dropoff</tspan></text>
  </g>
</svg>
